<svg xmlns="http://www.w3.org/2000/svg" viewBox="0 0 600 400" width="600" height="400" shape-rendering="geometricPrecision" text-rendering="geometricPrecision" font-family="-apple-system, BlinkMacSystemFont, 'Segoe UI', Helvetica, Arial, sans-serif">
<circle cx="130" cy="330" r="4.5" fill="#1A1A1A"/>
<path d="M130.00,330.00 L540.00,330.00 M528.32,324.30 L540.00,330.00 L528.32,335.70" fill="none" stroke="#5B6E8F" stroke-width="2.0" stroke-linecap="round" stroke-linejoin="round"/>
<text x="548" y="335" font-size="16" fill="#5B6E8F" font-style="italic">e₁</text>
<path d="M130.00,330.00 L130.00,60.00 M124.30,71.68 L130.00,60.00 L135.70,71.68" fill="none" stroke="#5B6E8F" stroke-width="2.0" stroke-linecap="round" stroke-linejoin="round"/>
<text x="118" y="52" font-size="16" fill="#5B6E8F" font-style="italic" text-anchor="end">e₂</text>
<path d="M130.00,330.00 L350.00,160.00 M337.27,162.63 L350.00,160.00 L344.24,171.65" fill="none" stroke="#E07A5F" stroke-width="2.5" stroke-linecap="round" stroke-linejoin="round"/>
<text x="358" y="148" font-size="18" fill="#E07A5F" font-style="italic">∇f</text>
<line x1="350" y1="160" x2="350" y2="330" stroke="#999999" stroke-width="1" stroke-dasharray="4 3"/>
<line x1="350" y1="324" x2="350" y2="336" stroke="#1A1A1A" stroke-width="1.5"/>
<text x="350" y="358" font-size="15" fill="#333333" font-style="italic" text-anchor="middle">∂f/∂x</text>
<line x1="350" y1="160" x2="130" y2="160" stroke="#999999" stroke-width="1" stroke-dasharray="4 3"/>
<line x1="124" y1="160" x2="136" y2="160" stroke="#1A1A1A" stroke-width="1.5"/>
<text x="118" y="164" font-size="15" fill="#333333" font-style="italic" text-anchor="end">∂f/∂y</text>
</svg>
