<svg xmlns="http://www.w3.org/2000/svg" viewBox="0 0 1200 630" width="1200" height="630" shape-rendering="geometricPrecision" text-rendering="geometricPrecision" font-family="-apple-system, BlinkMacSystemFont, 'Segoe UI', Helvetica, Arial, sans-serif">
<defs><pattern id="contours-og" patternUnits="userSpaceOnUse" width="42" height="42" patternTransform="rotate(15)"><line x1="0" y1="0" x2="42" y2="0" stroke="#C9D1DF" stroke-width="1"/></pattern></defs>
<rect x="0" y="0" width="1200" height="630" fill="#FFFFFF"/>
<rect x="0" y="0" width="1200" height="630" fill="url(#contours-og)"/>

<text x="74" y="244" font-size="52" font-weight="700" fill="#1A1A1A">Why the gradient</text>
<text x="74" y="312" font-size="52" font-weight="700" fill="#1A1A1A">is a list of</text>
<text x="74" y="380" font-size="52" font-weight="700" fill="#1A1A1A">partial derivatives</text>
<text x="76" y="452" font-size="31" font-style="italic" fill="#E07A5F">&#8711;f = (&#8706;f/&#8706;x, &#8706;f/&#8706;y)</text>
<text x="76" y="506" font-size="22" fill="#888888">Michał Prządka</text>

<svg x="650" y="92" width="480" height="446" viewBox="235 0 335 390" preserveAspectRatio="xMidYMid meet">
<line x1="348.23" y1="20.00" x2="251.77" y2="380.00" stroke="#B3B3B3" stroke-width="1.4" stroke-dasharray="6 5"/>
<text x="358.23" y="28.00" font-size="17" fill="#888888" font-style="italic">fall line</text>
<path d="M268.00,184.18 L335.62,202.30 Q342.38,204.11 349.54,196.72" fill="none" stroke="#5B6E8F" stroke-width="3.4" stroke-linecap="round" stroke-linejoin="round"/>
<path d="M264.38,197.70 L332.00,215.82 Q338.76,217.63 345.92,210.24" fill="none" stroke="#5B6E8F" stroke-width="3.4" stroke-linecap="round" stroke-linejoin="round"/>
<line x1="300.00" y1="200.00" x2="304.53" y2="183.10" stroke="#1A1A1A" stroke-width="3" stroke-linecap="round"/>
<circle cx="306.21" cy="176.82" r="9" fill="#FFFFFF" stroke="#1A1A1A" stroke-width="2.6"/>
<path d="M344.31,204.63 L436.08,229.21 M426.26,220.69 L436.08,229.21 L423.31,231.69" fill="none" stroke="#5B6E8F" stroke-width="3.2" stroke-linecap="round" stroke-linejoin="round"/>
<text x="445.08" y="228.21" font-size="19" fill="#333333" font-style="italic">no change</text>
<path d="M300.00,200.00 L270.24,311.08 M278.76,301.27 L270.24,311.08 L267.76,298.32" fill="none" stroke="#E07A5F" stroke-width="3.2" stroke-linecap="round" stroke-linejoin="round"/>
<text x="245.24" y="334.08" font-size="19" fill="#333333" font-style="italic">steepest</text>
</svg>
</svg>
