<svg xmlns="http://www.w3.org/2000/svg" viewBox="0 0 1200 630" width="1200" height="630" shape-rendering="geometricPrecision" text-rendering="geometricPrecision" font-family="-apple-system, BlinkMacSystemFont, 'Segoe UI', Helvetica, Arial, sans-serif">
<defs><pattern id="contours-og" patternUnits="userSpaceOnUse" width="46" height="46" patternTransform="rotate(15)"><line x1="0" y1="0" x2="46" y2="0" stroke="#C9D1DF" stroke-width="1.2"/></pattern></defs>
<rect x="0" y="0" width="1200" height="630" fill="#FFFFFF"/>
<rect x="0" y="0" width="1200" height="630" fill="url(#contours-og)"/>

<svg x="300" y="18" width="600" height="594" viewBox="232 4 312 386" preserveAspectRatio="xMidYMid meet">
<line x1="348.23" y1="20.00" x2="251.77" y2="380.00" stroke="#B3B3B3" stroke-width="1.5" stroke-dasharray="6 5"/>
<text x="356.23" y="28.00" font-size="17" fill="#888888" font-style="italic">fall line</text>
<path d="M268.00,184.18 L335.62,202.30 Q342.38,204.11 349.54,196.72" fill="none" stroke="#5B6E8F" stroke-width="3.6" stroke-linecap="round" stroke-linejoin="round"/>
<path d="M264.38,197.70 L332.00,215.82 Q338.76,217.63 345.92,210.24" fill="none" stroke="#5B6E8F" stroke-width="3.6" stroke-linecap="round" stroke-linejoin="round"/>
<line x1="300.00" y1="200.00" x2="304.53" y2="183.10" stroke="#1A1A1A" stroke-width="3.2" stroke-linecap="round"/>
<circle cx="306.21" cy="176.82" r="9.5" fill="#FFFFFF" stroke="#1A1A1A" stroke-width="2.8"/>
<path d="M344.31,204.63 L436.08,229.21 M426.26,220.69 L436.08,229.21 L423.31,231.69" fill="none" stroke="#5B6E8F" stroke-width="3.4" stroke-linecap="round" stroke-linejoin="round"/>
<text x="445.08" y="228.21" font-size="19" fill="#333333" font-style="italic">no change</text>
<path d="M300.00,200.00 L270.24,311.08 M278.76,301.27 L270.24,311.08 L267.76,298.32" fill="none" stroke="#E07A5F" stroke-width="3.4" stroke-linecap="round" stroke-linejoin="round"/>
<text x="245.24" y="334.08" font-size="19" fill="#333333" font-style="italic">steepest</text>
</svg>
</svg>
